<svg width="318" height="72" viewBox="0 0 318 72" fill="none" xmlns="http://www.w3.org/2000/svg">
<path d="M0.246189 69.7537C0.957806 69.4252 1.66942 68.7957 2.38104 67.8652C3.09265 66.8798 3.7769 65.8124 4.43378 64.6629C5.09065 63.5133 5.66542 62.3912 6.15808 61.2964C6.70548 60.1468 7.11602 59.2436 7.38972 58.5868L30.7088 3.9839L53.7816 59.1615C54.8217 61.6248 55.807 63.6502 56.7376 65.2376C57.6682 66.7704 58.5987 67.9473 59.5293 68.7684C59.7483 68.9326 59.9672 69.1242 60.1862 69.3431C60.4051 69.5073 60.6515 69.6442 60.9252 69.7537H46.8023C47.5687 69.2063 48.1161 68.5768 48.4445 67.8652C48.773 67.0988 48.9372 66.3051 48.9372 65.484C48.9372 64.6629 48.773 63.6228 48.4445 62.3638C48.1161 61.0501 47.5687 59.5173 46.8023 57.7657L42.2863 47.1735H13.1374L8.12871 58.6689C7.52657 60.2016 7.06128 61.5153 6.73285 62.6101C6.45915 63.7049 6.3223 64.6355 6.3223 65.4019C6.3223 65.9493 6.43178 66.6061 6.65074 67.3725C6.92444 68.0841 7.52657 68.8231 8.45715 69.5895C8.45715 69.5895 8.56663 69.6442 8.78559 69.7537H0.246189ZM13.3837 46.5167H42.2042L27.9992 12.6054L13.3837 46.5167ZM67.3361 0.617402H67.5004V37.0741C68.212 35.7603 69.1425 34.3918 70.2921 32.9686C71.4964 31.5453 72.8101 30.259 74.2333 29.1094C75.7113 27.9052 77.2714 26.9198 78.9136 26.1535C80.5558 25.3324 82.1706 24.9218 83.758 24.9218C85.9476 24.9218 87.9456 25.3598 89.752 26.2356C91.5585 27.1114 93.2554 28.5073 94.8428 30.4232C98.1272 34.0907 99.7694 39.2363 99.7694 45.8598C99.7694 53.5781 97.2514 59.791 92.2153 64.4987C89.8615 66.6335 87.5898 68.221 85.4002 69.261C83.2654 70.3011 80.9937 70.8211 78.5851 70.8211C75.7387 70.8211 72.9743 70.2737 70.2921 69.1789C67.6098 68.0841 65.0644 66.8251 62.6559 65.4019V18.271C62.6559 16.4645 62.6285 14.9866 62.5738 13.837C62.5738 12.6328 62.5464 11.6475 62.4917 10.8811C62.4917 10.1147 62.4643 9.53998 62.4096 9.1568C62.4096 8.77362 62.3822 8.47255 62.3274 8.25359C62.1085 7.32302 61.7527 6.47455 61.26 5.70819C60.7674 4.8871 60.0557 4.31233 59.1252 3.9839L67.3361 0.617402ZM67.5004 64.1702L67.993 64.745C69.5805 66.223 71.2774 67.482 73.0838 68.522C74.945 69.5621 76.9977 70.0821 79.242 70.0821C81.3221 70.0821 83.3201 69.6168 85.236 68.6862C87.2067 67.7009 88.8762 66.3324 90.2447 64.5808C93.1459 60.8585 94.5965 55.5761 94.5965 48.7336C94.5965 42.3838 93.1459 37.4572 90.2447 33.9539C88.6573 32.038 87.0151 30.6421 85.3181 29.7663C83.6212 28.8357 81.9243 28.3704 80.2273 28.3704C77.7093 28.3704 75.3281 29.2736 73.0838 31.0801C70.8942 32.8865 69.0331 35.3498 67.5004 38.4699V64.1702ZM103.512 48.0767C103.512 45.1208 104.004 42.247 104.99 39.4552C106.03 36.6088 107.453 34.0907 109.259 31.9012C111.121 29.7116 113.338 27.9599 115.91 26.6461C118.483 25.2776 121.33 24.5934 124.45 24.5934C127.351 24.5934 130.033 25.2229 132.497 26.4819C134.96 27.6862 137.095 29.3284 138.901 31.4085C140.707 33.4339 142.103 35.7877 143.089 38.4699C144.129 41.0974 144.649 43.8618 144.649 46.763C144.649 49.7737 144.156 52.7296 143.171 55.6308C142.185 58.4773 140.762 61.0227 138.901 63.267C137.095 65.5113 134.878 67.3178 132.25 68.6862C129.677 70 126.804 70.6569 123.629 70.6569C120.727 70.6569 118.045 70.0547 115.582 68.8505C113.119 67.5915 110.984 65.9219 109.177 63.8418C107.426 61.7069 106.03 59.2984 104.99 56.6161C104.004 53.8792 103.512 51.0327 103.512 48.0767ZM124.696 69.8358C125.9 69.8358 127.324 69.6168 128.966 69.1789C131.265 68.5768 133.071 67.6736 134.385 66.4693C135.699 65.265 136.684 63.8692 137.341 62.2817C137.998 60.6395 138.408 58.8331 138.573 56.8625C138.737 54.8918 138.819 52.8391 138.819 50.7042C138.819 48.1862 138.573 45.4492 138.08 42.4933C137.642 39.5373 136.848 36.8004 135.699 34.2823C134.549 31.7096 133.017 29.5747 131.101 27.8778C129.185 26.1809 126.749 25.3324 123.793 25.3324C123.355 25.3324 122.862 25.3598 122.315 25.4145C121.822 25.4692 121.302 25.5513 120.755 25.6608C118.292 26.1535 116.294 26.9746 114.761 28.1241C113.283 29.2189 112.133 30.5874 111.312 32.2296C110.491 33.817 109.944 35.5961 109.67 37.5667C109.396 39.5373 109.259 41.6175 109.259 43.807C109.259 46.3251 109.506 49.0894 109.998 52.1001C110.546 55.1108 111.422 57.9299 112.626 60.5574C113.83 63.1849 115.418 65.4019 117.388 67.2083C119.359 68.9599 121.795 69.8358 124.696 69.8358ZM148.089 26.2356H155.068L155.15 53.8244C155.15 55.1929 155.233 56.6982 155.397 58.3404C155.616 59.9826 155.999 61.5153 156.546 62.9386C157.148 64.3071 157.997 65.484 159.092 66.4693C160.186 67.3999 161.637 67.8652 163.443 67.8652C165.633 67.8652 167.795 67.1262 169.93 65.6482C172.065 64.1702 173.762 62.3364 175.021 60.1468C175.733 58.8878 176.307 57.5741 176.745 56.2056C177.238 54.8371 177.621 53.5233 177.895 52.2643V34.8571C177.895 32.558 177.813 30.9979 177.648 30.1769C177.484 29.301 177.32 28.6715 177.156 28.2883C176.718 27.3578 176.225 26.6735 175.678 26.2356H182.657V52.1001C182.657 53.0307 182.63 54.2623 182.575 55.795C182.575 57.3278 182.657 58.8605 182.821 60.3932C183.04 61.8712 183.396 63.2396 183.889 64.4987C184.436 65.7029 185.257 66.4967 186.352 66.8798L177.977 70.3284H177.895V54.8918C177.621 55.8224 177.293 56.753 176.909 57.6836C176.526 58.6141 176.061 59.5447 175.514 60.4753C174.747 61.8438 173.789 63.1302 172.64 64.3344C171.545 65.484 170.313 66.524 168.945 67.4546C167.576 68.3304 166.153 69.0421 164.675 69.5895C163.252 70.0821 161.829 70.3284 160.405 70.3284C158.216 70.3284 156.464 69.8358 155.15 68.8505C153.837 67.8104 152.824 66.524 152.112 64.9913C151.401 63.4586 150.908 61.789 150.634 59.9826C150.415 58.1215 150.306 56.3424 150.306 54.6455V34.8571C150.306 31.6275 150.032 29.3831 149.485 28.1241C149.375 27.7409 149.184 27.4125 148.91 27.1388C148.636 26.8104 148.363 26.5093 148.089 26.2356ZM184.496 26.2356C184.934 25.9072 185.427 25.5513 185.974 25.1682C186.467 24.785 186.932 24.3471 187.37 23.8544C189.45 22.048 191.284 19.831 192.871 17.2035C193.145 16.8751 193.391 16.4645 193.61 15.9719C193.829 15.4245 194.076 14.8497 194.349 14.2476V25.4145H198.783C198.948 25.4145 199.03 25.5513 199.03 25.825C199.03 25.9893 198.948 26.0714 198.783 26.0714H194.349V58.012C194.349 59.0521 194.431 60.1468 194.596 61.2964C194.76 62.3912 195.088 63.4039 195.581 64.3344C196.074 65.265 196.731 66.0314 197.552 66.6335C198.373 67.2356 199.44 67.5367 200.754 67.5367C201.192 67.5367 201.548 67.5093 201.821 67.4546C202.15 67.3999 202.533 67.2904 202.971 67.1262C202.697 67.3999 202.506 67.5641 202.396 67.6188C200.59 69.0421 198.729 69.7537 196.813 69.7537C195.28 69.7537 194.021 69.4526 193.036 68.8505C192.105 68.1936 191.366 67.3725 190.819 66.3872C190.326 65.4019 189.998 64.2797 189.833 63.0207C189.669 61.7617 189.587 60.4753 189.587 59.1615V26.2356H184.496ZM230.195 4.80499H242.675C241.088 6.17348 240.13 7.73356 239.802 9.48523C239.528 11.2369 239.391 13.1254 239.391 15.1508V45.0387C239.391 48.4325 239.637 51.6896 240.13 54.8097C240.623 57.8752 241.581 60.5848 243.004 62.9386C244.482 65.2376 246.48 67.0988 248.998 68.522C251.571 69.8905 254.91 70.5748 259.015 70.5748C263.832 70.5748 268.129 69.5347 271.906 67.4546C274.37 66.0861 276.286 64.526 277.654 62.7744C279.023 61.0227 280.035 59.1068 280.692 57.0267C281.349 54.9466 281.732 52.7296 281.842 50.3758C282.006 47.9673 282.088 45.504 282.088 42.9859V15.1508C282.088 10.4432 281.458 7.35039 280.199 5.87242C279.98 5.7082 279.789 5.54398 279.625 5.37975C279.46 5.1608 279.241 4.96921 278.968 4.80499H286.604C284.852 6.17348 283.812 7.7883 283.484 9.64946C283.155 11.5106 282.991 13.4812 282.991 15.5613V43.3144C282.991 45.7777 282.909 48.1589 282.745 50.4579C282.581 52.7022 282.197 54.8645 281.595 56.9446C280.993 58.9699 280.063 60.8858 278.804 62.6922C277.545 64.4439 275.82 66.0861 273.631 67.6188C269.963 70.1916 264.9 71.478 258.44 71.478C255.922 71.478 253.432 71.2864 250.968 70.9032C248.56 70.52 246.288 69.8358 244.153 68.8505C242.073 67.8104 240.239 66.4419 238.652 64.745C237.065 63.0481 235.806 60.8858 234.875 58.2583C233.78 55.4119 233.233 49.9653 233.233 41.9185V15.1508C233.233 12.7423 233.069 10.799 232.74 9.32102C232.412 7.78831 231.864 6.58403 231.098 5.70819C230.988 5.54398 230.852 5.37976 230.687 5.21554C230.578 5.05132 230.414 4.91447 230.195 4.80499ZM298.014 24.4292C299.164 24.1007 300.34 23.9365 301.545 23.9365C302.694 23.9365 303.871 24.1007 305.075 24.4292C306.28 24.7029 307.457 25.1408 308.606 25.7429C309.373 26.1261 310.057 26.4272 310.659 26.6461C311.261 26.8104 311.754 26.8377 312.137 26.7282C312.739 26.7282 313.286 26.564 313.779 26.2356V32.8044C312.52 30.1221 310.933 28.0967 309.017 26.7282C307.101 25.305 304.555 24.5934 301.381 24.5934C300.45 24.5934 299.383 24.7302 298.178 25.0039C296.591 25.4419 295.25 26.1535 294.155 27.1388C293.115 28.0694 292.376 29.1368 291.938 30.3411C291.5 31.5453 291.391 32.8317 291.609 34.2002C291.883 35.514 292.54 36.8277 293.58 38.1415C294.784 39.6195 297.111 41.2343 300.559 42.9859L308.031 46.5988C314.162 49.5 317.228 53.3318 317.228 58.0941C317.228 59.791 316.817 61.4606 315.996 63.1028C315.23 64.6902 314.217 66.0861 312.958 67.2904C311.699 68.4947 310.248 69.4526 308.606 70.1642C306.964 70.9306 305.294 71.3138 303.597 71.3138C302.338 71.3138 301.134 71.1495 299.985 70.8211C298.835 70.5474 297.74 70.2463 296.7 69.9179C295.66 69.5347 294.675 69.2063 293.744 68.9326C292.868 68.6041 292.02 68.4399 291.199 68.4399C290.487 68.4399 289.885 68.5768 289.393 68.8505V61.2964C290.049 62.6101 290.843 63.8418 291.774 64.9913C292.759 66.1408 293.854 67.1262 295.058 67.9473C296.262 68.7684 297.549 69.4252 298.917 69.9179C300.286 70.4105 301.709 70.6569 303.187 70.6569C304.391 70.6569 305.568 70.4927 306.718 70.1642C308.524 69.6716 309.975 68.8505 311.069 67.7009C312.164 66.4967 312.876 65.1829 313.204 63.7597C313.533 62.2817 313.451 60.7764 312.958 59.2436C312.52 57.7109 311.644 56.3424 310.33 55.1382C309.455 54.2623 308.168 53.3044 306.471 52.2643C304.829 51.2243 302.722 50.0474 300.149 48.7336C297.248 47.3104 295.113 46.1061 293.744 45.1208C292.431 44.0807 291.555 43.2596 291.117 42.6575C289.913 41.1795 289.256 39.4826 289.146 37.5667C289.091 35.6508 289.42 33.817 290.131 32.0654C290.843 30.259 291.883 28.6715 293.252 27.303C294.675 25.8798 296.262 24.9218 298.014 24.4292Z" fill="white"/>
</svg>
