<svg width="505" height="72" viewBox="0 0 505 72" fill="none" xmlns="http://www.w3.org/2000/svg">
<path d="M0.588837 4.7073H53.2177L53.4644 11.6148C52.8065 10.4088 52.039 9.42197 51.1619 8.65447C50.2847 7.83214 49.3254 7.20169 48.2838 6.76312C47.2421 6.26972 46.1183 5.94079 44.9122 5.77633C43.7061 5.55704 42.4726 5.4474 41.2117 5.4474H29.6992V59.7209C29.6992 64.4356 30.3296 67.4508 31.5905 68.7665C31.9195 69.2051 32.3032 69.534 32.7418 69.7533H20.5714C21.2292 69.2599 21.75 68.7117 22.1338 68.1086C23.1754 66.7381 23.6962 63.9422 23.6962 59.7209V5.4474H13.5816C12.211 5.4474 10.9227 5.50222 9.71666 5.61186C8.51058 5.66668 7.38673 5.88597 6.34512 6.26972C5.30351 6.59865 4.31672 7.11946 3.38475 7.83214C2.45278 8.49 1.57563 9.42197 0.753302 10.628C0.643659 10.7377 0.561426 10.8747 0.506604 11.0392C0.451783 11.1489 0.36955 11.2585 0.259906 11.3681L0.588837 4.7073ZM61.5958 0.51344H61.7603V42.6988C62.0344 41.4379 62.3907 40.0947 62.8293 38.6694C63.3227 37.244 63.9531 35.9009 64.7206 34.64C65.4881 33.2694 66.4201 31.9811 67.5165 30.775C68.6678 29.569 69.9013 28.5274 71.217 27.6502C72.5327 26.7731 73.8759 26.0878 75.2464 25.5944C76.6718 25.0462 78.0423 24.7721 79.358 24.7721C81.825 24.7721 83.7164 25.4573 85.0321 26.8279C86.4026 28.1436 87.3894 29.7882 87.9925 31.7618C88.6503 33.6806 89.0341 35.7638 89.1437 38.0115C89.2534 40.2044 89.3082 42.178 89.3082 43.9323V60.3788C89.3082 63.5584 89.5823 65.7787 90.1305 67.0396C90.3498 67.6975 90.7884 68.3553 91.4462 69.0132H82.2362C83.223 68.1909 83.8808 67.0396 84.2098 65.5594V65.395C84.2646 65.1757 84.3194 64.7371 84.3742 64.0793C84.4291 63.4214 84.4565 62.1879 84.4565 60.3788V43.9323C84.4565 41.1912 84.3742 38.9709 84.2098 37.2714C84.0453 35.5719 83.7986 34.2562 83.4697 33.3243C82.757 31.1862 81.7702 29.6512 80.5093 28.7192C79.2484 27.7873 77.8779 27.3213 76.3977 27.3213C74.3693 27.3213 72.3134 28.034 70.2302 29.4593C68.2018 30.8847 66.5572 32.7212 65.2963 34.9689C64.145 37.0521 63.2953 39.2176 62.7471 41.4653C62.1988 43.6582 61.8699 45.6043 61.7603 47.3038V60.3788C61.7603 62.6265 61.8425 64.1889 62.007 65.066C62.1714 65.9432 62.3085 66.5736 62.4181 66.9574C62.8019 67.7797 63.3227 68.465 63.9805 69.0132H54.6883C54.9624 68.7391 55.2365 68.4102 55.5106 68.0264C55.7847 67.6427 56.004 67.2315 56.1684 66.7929C56.3877 66.4092 56.5522 65.7787 56.6618 64.9016C56.8263 63.9696 56.9085 62.462 56.9085 60.3788V18.2757C56.9085 16.4666 56.8811 14.959 56.8263 13.7529C56.8263 12.5468 56.7989 11.56 56.7441 10.7925C56.7441 10.025 56.7167 9.44938 56.6618 9.06563C56.6618 8.68188 56.6344 8.38036 56.5796 8.16107C56.3055 7.2291 55.9217 6.37936 55.4284 5.61186C54.9898 4.78953 54.3045 4.21391 53.3725 3.88498L61.5958 0.51344ZM95.2444 48.2084C95.2444 45.1932 95.6281 42.2602 96.3956 39.4095C97.1631 36.5587 98.3418 34.0369 99.9316 31.8441C101.521 29.6512 103.522 27.8969 105.935 26.5812C108.402 25.2655 111.28 24.6076 114.569 24.6076C116.872 24.6076 118.982 24.9913 120.901 25.7589C122.875 26.5264 124.574 27.5954 125.999 28.9659C127.425 30.2816 128.549 31.8989 129.371 33.8176C130.248 35.7364 130.741 37.847 130.851 40.1496C127.671 40.1496 124.464 40.1496 121.23 40.1496C117.995 40.0947 114.816 40.3688 111.691 40.9719C106.976 41.9039 103.851 43.5211 102.316 45.8236C101.659 46.8652 101.247 47.9891 101.083 49.1951C100.918 50.4012 100.946 51.6073 101.165 52.8134C101.384 53.9646 101.768 55.1159 102.316 56.2672C102.919 57.3636 103.577 58.3504 104.29 59.2275C107.963 63.5584 112.404 65.7239 117.612 65.7239C120.956 65.7239 123.505 65.0935 125.259 63.8326C127.068 62.5168 128.439 60.324 129.371 57.2539C129.371 57.0347 129.508 56.9798 129.782 57.0895C130.001 57.0895 130.056 57.1991 129.947 57.4184C129.398 59.2275 128.603 60.927 127.562 62.5168C126.575 64.1067 125.369 65.4772 123.944 66.6285C122.518 67.7797 120.928 68.7117 119.174 69.4244C117.475 70.0822 115.665 70.4112 113.747 70.4112C108.703 70.4112 104.372 68.465 100.754 64.5726C97.0809 60.461 95.2444 55.0063 95.2444 48.2084ZM100.507 52.8956C100.398 52.457 100.315 52.0459 100.261 51.6621C100.261 51.2784 100.261 50.8672 100.261 50.4286C100.261 48.6195 100.672 47.0845 101.494 45.8236C102.316 44.5627 103.385 43.5485 104.701 42.781C106.017 41.9587 107.524 41.3282 109.224 40.8897C110.923 40.4511 112.65 40.1221 114.405 39.9029C116.159 39.6836 117.858 39.5739 119.503 39.5739C121.202 39.5191 122.683 39.4917 123.944 39.4917V38.8338C123.834 37.244 123.697 35.8735 123.532 34.7222C123.423 33.571 123.203 32.639 122.875 31.9263C121.833 29.6238 120.462 27.9517 118.763 26.9101C117.063 25.8685 115.227 25.3477 113.253 25.3477C111.992 25.3477 110.704 25.5396 109.388 25.9233C108.127 26.3071 106.867 26.8553 105.606 27.568C103.632 28.6096 102.07 30.0624 100.918 31.9263C99.822 33.7902 99.0819 35.8735 98.6981 38.176C98.3144 40.4237 98.287 42.8358 98.6159 45.4124C98.9448 47.9342 99.5753 50.4286 100.507 52.8956ZM166.62 0.51344H166.784V37.0247C167.497 35.709 168.429 34.3385 169.58 32.9131C170.786 31.4877 172.102 30.1994 173.527 29.0482C175.007 27.8421 176.57 26.8553 178.214 26.0878C179.859 25.2655 181.476 24.8543 183.066 24.8543C185.259 24.8543 187.26 25.2929 189.069 26.17C190.878 27.0472 192.578 28.4451 194.168 30.3639C197.457 34.0369 199.102 39.1902 199.102 45.8236C199.102 53.5535 196.58 59.7757 191.536 64.4904C189.179 66.6285 186.904 68.2183 184.711 69.2599C182.573 70.3015 180.298 70.8223 177.886 70.8223C175.035 70.8223 172.266 70.2741 169.58 69.1777C166.894 68.0812 164.345 66.8203 161.932 65.395V18.1934C161.932 16.3843 161.905 14.9041 161.85 13.7529C161.85 12.5468 161.823 11.56 161.768 10.7925C161.768 10.025 161.741 9.44938 161.686 9.06563C161.686 8.68188 161.658 8.38036 161.604 8.16107C161.384 7.2291 161.028 6.37936 160.534 5.61186C160.041 4.78953 159.328 4.21391 158.396 3.88498L166.62 0.51344ZM166.784 64.1615L167.278 64.7371C168.867 66.2173 170.567 67.4782 172.376 68.5198C174.24 69.5614 176.296 70.0822 178.543 70.0822C180.627 70.0822 182.628 69.6162 184.546 68.6843C186.52 67.6975 188.192 66.3269 189.563 64.5726C192.468 60.8448 193.921 55.5545 193.921 48.7018C193.921 42.3424 192.468 37.4085 189.563 33.8999C187.973 31.9811 186.328 30.5832 184.629 29.706C182.929 28.774 181.23 28.3081 179.53 28.3081C177.008 28.3081 174.624 29.2126 172.376 31.0217C170.183 32.8309 168.319 35.2978 166.784 38.4227V64.1615ZM203.014 48.2084C203.014 45.1932 203.398 42.2602 204.165 39.4095C204.933 36.5587 206.111 34.0369 207.701 31.8441C209.291 29.6512 211.292 27.8969 213.704 26.5812C216.171 25.2655 219.049 24.6076 222.339 24.6076C224.641 24.6076 226.752 24.9913 228.671 25.7589C230.644 26.5264 232.344 27.5954 233.769 28.9659C235.194 30.2816 236.318 31.8989 237.141 33.8176C238.018 35.7364 238.511 37.847 238.621 40.1496C235.441 40.1496 232.234 40.1496 229 40.1496C225.765 40.0947 222.585 40.3688 219.461 40.9719C214.746 41.9039 211.621 43.5211 210.086 45.8236C209.428 46.8652 209.017 47.9891 208.853 49.1951C208.688 50.4012 208.716 51.6073 208.935 52.8134C209.154 53.9646 209.538 55.1159 210.086 56.2672C210.689 57.3636 211.347 58.3504 212.06 59.2275C215.733 63.5584 220.173 65.7239 225.381 65.7239C228.725 65.7239 231.275 65.0935 233.029 63.8326C234.838 62.5168 236.209 60.324 237.141 57.2539C237.141 57.0347 237.278 56.9798 237.552 57.0895C237.771 57.0895 237.826 57.1991 237.716 57.4184C237.168 59.2275 236.373 60.927 235.331 62.5168C234.345 64.1067 233.139 65.4772 231.713 66.6285C230.288 67.7797 228.698 68.7117 226.944 69.4244C225.244 70.0822 223.435 70.4112 221.516 70.4112C216.473 70.4112 212.142 68.465 208.524 64.5726C204.851 60.461 203.014 55.0063 203.014 48.2084ZM208.277 52.8956C208.167 52.457 208.085 52.0459 208.03 51.6621C208.03 51.2784 208.03 50.8672 208.03 50.4286C208.03 48.6195 208.441 47.0845 209.264 45.8236C210.086 44.5627 211.155 43.5485 212.471 42.781C213.787 41.9587 215.294 41.3282 216.994 40.8897C218.693 40.4511 220.42 40.1221 222.174 39.9029C223.929 39.6836 225.628 39.5739 227.273 39.5739C228.972 39.5191 230.452 39.4917 231.713 39.4917V38.8338C231.604 37.244 231.467 35.8735 231.302 34.7222C231.192 33.571 230.973 32.639 230.644 31.9263C229.603 29.6238 228.232 27.9517 226.533 26.9101C224.833 25.8685 222.997 25.3477 221.023 25.3477C219.762 25.3477 218.474 25.5396 217.158 25.9233C215.897 26.3071 214.636 26.8553 213.375 27.568C211.402 28.6096 209.839 30.0624 208.688 31.9263C207.592 33.7902 206.852 35.8735 206.468 38.176C206.084 40.4237 206.057 42.8358 206.386 45.4124C206.715 47.9342 207.345 50.4286 208.277 52.8956ZM251.086 24.3609C252.347 24.032 253.498 23.8675 254.54 23.8675C255.746 23.8675 256.842 24.032 257.829 24.3609C258.871 24.635 259.885 24.9639 260.872 25.3477C261.859 25.7314 262.845 26.0878 263.832 26.4167C264.874 26.7456 265.97 26.9101 267.121 26.9101C268.547 26.9101 270.027 26.636 271.562 26.0878C274.193 25.101 276.222 23.4289 277.647 21.0716C279.073 18.7143 279.648 16.1376 279.374 13.3417C279.21 11.7519 278.771 10.2991 278.058 8.9834C277.401 7.61286 276.523 6.43419 275.427 5.4474C274.33 4.46061 273.07 3.6931 271.644 3.14488C270.219 2.54184 268.711 2.24032 267.121 2.24032C264.161 2.24032 261.557 3.1997 259.309 5.11847C257.062 6.9824 255.636 9.33974 255.033 12.1905C254.924 12.9032 255.088 13.5062 255.527 13.9996C255.965 14.493 256.541 14.7397 257.254 14.7397H257.336C258.158 14.7397 258.843 15.0412 259.392 15.6442C259.94 16.1925 260.186 16.8777 260.132 17.7001C260.077 18.3579 259.803 18.9335 259.309 19.4269C258.871 19.9203 258.295 20.1944 257.582 20.2493C256.65 20.3041 255.938 20.0574 255.444 19.5092C254.951 18.9061 254.595 18.1935 254.375 17.3711C254.156 16.494 254.074 15.5894 254.129 14.6574C254.184 13.7255 254.266 12.9306 254.375 12.2727C254.649 10.7377 255.17 9.33974 255.938 8.07884C256.705 6.76312 257.665 5.63927 258.816 4.7073C259.967 3.72051 261.256 2.95301 262.681 2.40479C264.106 1.85657 265.586 1.58246 267.121 1.58246C268.821 1.58246 270.411 1.88398 271.891 2.48702C273.371 3.09006 274.687 3.9398 275.838 5.03623C276.989 6.07785 277.921 7.31134 278.634 8.7367C279.402 10.1072 279.867 11.6148 280.032 13.2595C280.142 14.1366 280.196 15.1783 280.196 16.3843C280.196 17.5356 280.169 18.6868 280.114 19.8381C280.114 20.9894 280.087 22.0858 280.032 23.1274C279.977 24.1142 279.95 24.8543 279.95 25.3477H284.39C284.555 25.3477 284.637 25.4847 284.637 25.7589C284.637 25.9233 284.555 26.0056 284.39 26.0056H279.95V57.994C279.95 61.4478 280.553 63.86 281.759 65.2305C282.362 65.9432 283.047 66.5188 283.815 66.9574C284.637 67.3411 285.514 67.533 286.446 67.533C287.268 67.533 287.981 67.396 288.584 67.1219C288.475 67.2315 288.365 67.3411 288.255 67.4508C288.2 67.5056 288.118 67.5604 288.009 67.6153C286.199 69.0406 284.335 69.7533 282.417 69.7533C281.156 69.7533 279.922 69.397 278.716 68.6843C277.894 68.1909 277.236 67.5878 276.743 66.8752C276.304 66.1625 275.975 65.3676 275.756 64.4904C275.537 63.6133 275.4 62.7361 275.345 61.859C275.29 60.927 275.262 60.0224 275.262 59.1453V26.0878C273.782 26.0878 272.439 26.3345 271.233 26.8279C270.027 27.3213 268.656 27.568 267.121 27.568C265.915 27.568 264.764 27.4035 263.668 27.0746C262.626 26.7456 261.584 26.3893 260.543 26.0056C259.556 25.6218 258.542 25.2655 257.5 24.9365C256.513 24.6076 255.417 24.4431 254.211 24.4431C253.443 24.4431 252.457 24.5802 251.251 24.8543C249.661 25.3477 248.345 26.0604 247.303 26.9923C246.262 27.9243 245.522 28.9933 245.083 30.1994C244.645 31.4055 244.535 32.6938 244.754 34.0643C245.028 35.4349 245.659 36.7506 246.646 38.0115C247.797 39.5465 250.127 41.1638 253.635 42.8632L261.118 46.4815C267.258 49.4967 270.329 53.3616 270.329 58.0763C270.329 59.8306 269.917 61.5026 269.095 63.0925C268.328 64.6823 267.286 66.0802 265.97 67.2863C264.709 68.4924 263.257 69.4518 261.612 70.1645C259.967 70.8771 258.295 71.2335 256.596 71.2335C255.39 71.2335 254.211 71.069 253.06 70.7401C251.908 70.466 250.812 70.1645 249.77 69.8355C248.729 69.5066 247.742 69.2051 246.81 68.931C245.933 68.602 245.083 68.4376 244.261 68.4376C243.548 68.4376 242.945 68.5746 242.452 68.8487V61.2833C243.713 63.9696 245.604 66.2173 248.126 68.0264C250.648 69.7807 253.389 70.6579 256.349 70.6579C257.5 70.6579 258.651 70.4934 259.803 70.1645C261.612 69.6162 263.065 68.7665 264.161 67.6153C265.312 66.4092 266.052 65.0935 266.381 63.6681C266.71 62.2427 266.628 60.7625 266.135 59.2275C265.696 57.6925 264.819 56.322 263.503 55.1159C261.804 53.4164 258.377 51.2784 253.224 48.7018C250.319 47.2764 248.181 46.0703 246.81 45.0835C245.494 44.0419 244.617 43.2196 244.179 42.6165C242.972 41.0815 242.315 39.3546 242.205 37.4359C242.15 35.5171 242.479 33.6806 243.192 31.9263C243.904 30.1172 244.946 28.5274 246.317 27.1568C247.742 25.7863 249.332 24.8543 251.086 24.3609ZM314.02 4.7073H366.649L366.896 11.6148C366.238 10.4088 365.471 9.42197 364.593 8.65447C363.716 7.83214 362.757 7.20169 361.715 6.76312C360.674 6.26972 359.55 5.94079 358.344 5.77633C357.138 5.55704 355.904 5.4474 354.643 5.4474H343.131V59.7209C343.131 64.4356 343.761 67.4508 345.022 68.7665C345.351 69.2051 345.735 69.534 346.173 69.7533H334.003C334.661 69.2599 335.182 68.7117 335.565 68.1086C336.607 66.7381 337.128 63.9422 337.128 59.7209V5.4474H327.013C325.643 5.4474 324.354 5.50222 323.148 5.61186C321.942 5.66668 320.818 5.88597 319.777 6.26972C318.735 6.59865 317.748 7.11946 316.816 7.83214C315.884 8.49 315.007 9.42197 314.185 10.628C314.075 10.7377 313.993 10.8747 313.938 11.0392C313.883 11.1489 313.801 11.2585 313.691 11.3681L314.02 4.7073ZM360.332 48.2084C360.332 45.1932 360.716 42.2602 361.483 39.4095C362.251 36.5587 363.43 34.0369 365.019 31.8441C366.609 29.6512 368.61 27.8969 371.022 26.5812C373.489 25.2655 376.367 24.6076 379.657 24.6076C381.959 24.6076 384.07 24.9913 385.989 25.7589C387.962 26.5264 389.662 27.5954 391.087 28.9659C392.512 30.2816 393.636 31.8989 394.459 33.8176C395.336 35.7364 395.829 37.847 395.939 40.1496C392.759 40.1496 389.552 40.1496 386.318 40.1496C383.083 40.0947 379.903 40.3688 376.779 40.9719C372.064 41.9039 368.939 43.5211 367.404 45.8236C366.746 46.8652 366.335 47.9891 366.171 49.1951C366.006 50.4012 366.034 51.6073 366.253 52.8134C366.472 53.9646 366.856 55.1159 367.404 56.2672C368.007 57.3636 368.665 58.3504 369.378 59.2275C373.051 63.5584 377.491 65.7239 382.699 65.7239C386.044 65.7239 388.593 65.0935 390.347 63.8326C392.156 62.5168 393.527 60.324 394.459 57.2539C394.459 57.0347 394.596 56.9798 394.87 57.0895C395.089 57.0895 395.144 57.1991 395.034 57.4184C394.486 59.2275 393.691 60.927 392.65 62.5168C391.663 64.1067 390.457 65.4772 389.031 66.6285C387.606 67.7797 386.016 68.7117 384.262 69.4244C382.562 70.0822 380.753 70.4112 378.834 70.4112C373.791 70.4112 369.46 68.465 365.842 64.5726C362.169 60.461 360.332 55.0063 360.332 48.2084ZM365.595 52.8956C365.485 52.457 365.403 52.0459 365.348 51.6621C365.348 51.2784 365.348 50.8672 365.348 50.4286C365.348 48.6195 365.759 47.0845 366.582 45.8236C367.404 44.5627 368.473 43.5485 369.789 42.781C371.105 41.9587 372.612 41.3282 374.312 40.8897C376.011 40.4511 377.738 40.1221 379.492 39.9029C381.247 39.6836 382.946 39.5739 384.591 39.5739C386.29 39.5191 387.77 39.4917 389.031 39.4917V38.8338C388.922 37.244 388.785 35.8735 388.62 34.7222C388.51 33.571 388.291 32.639 387.962 31.9263C386.921 29.6238 385.55 27.9517 383.851 26.9101C382.151 25.8685 380.315 25.3477 378.341 25.3477C377.08 25.3477 375.792 25.5396 374.476 25.9233C373.215 26.3071 371.954 26.8553 370.693 27.568C368.72 28.6096 367.157 30.0624 366.006 31.9263C364.91 33.7902 364.17 35.8735 363.786 38.176C363.402 40.4237 363.375 42.8358 363.704 45.4124C364.033 47.9342 364.663 50.4286 365.595 52.8956ZM399.194 59.5565C399.194 57.4732 399.797 55.6093 401.003 53.9646C402.264 52.2652 403.772 50.7576 405.526 49.4418C407.335 48.0713 409.254 46.8926 411.282 45.9058C413.311 44.9191 415.12 44.0693 416.71 43.3566C417.587 42.9729 418.519 42.5891 419.506 42.2054C420.492 41.7668 421.397 41.246 422.219 40.643C423.042 40.0399 423.699 39.3546 424.193 38.5871C424.741 37.7648 424.988 36.778 424.933 35.6268C424.878 34.1466 424.714 32.7486 424.439 31.4329C424.165 30.1172 423.699 28.9933 423.042 28.0614C422.384 27.0746 421.479 26.3071 420.328 25.7589C419.177 25.1558 417.724 24.8543 415.97 24.8543C414.873 24.8543 413.722 24.9639 412.516 25.1832C411.31 25.4025 410.213 25.7863 409.226 26.3345C408.24 26.8279 407.417 27.5131 406.759 28.3903C406.156 29.2126 405.855 30.2542 405.855 31.5151C405.855 32.0085 405.882 32.6116 405.937 33.3243C405.992 34.0369 405.965 34.7222 405.855 35.3801C405.745 35.9831 405.499 36.5039 405.115 36.9425C404.786 37.3811 404.21 37.6003 403.388 37.6003C402.456 37.6003 401.826 37.2714 401.497 36.6136C401.168 35.9557 401.003 35.2156 401.003 34.3933C401.003 32.8034 401.442 31.3781 402.319 30.1172C403.251 28.8563 404.43 27.7873 405.855 26.9101C407.335 26.033 408.952 25.3751 410.707 24.9365C412.516 24.4431 414.27 24.1964 415.97 24.1964C417.285 24.1964 418.601 24.3061 419.917 24.5254C421.232 24.6898 422.466 25.0188 423.617 25.5122C424.823 25.9507 425.892 26.5812 426.824 27.4035C427.756 28.171 428.496 29.1852 429.045 30.4461C429.209 30.8299 429.401 31.8715 429.62 33.571C429.62 33.6806 429.62 33.8451 429.62 34.0643C429.675 34.2288 429.702 34.3933 429.702 34.5577V35.3801C429.757 35.5994 429.785 35.9557 429.785 36.4491V38.6694C429.785 42.2328 429.73 46.0703 429.62 50.1819C429.565 54.2387 429.675 58.1311 429.949 61.859C429.565 61.9686 429.182 62.0508 428.798 62.1057C428.414 62.1605 428.003 62.1879 427.564 62.1879C426.687 62.1879 425.837 62.0508 425.015 61.7767V39.9851C424.083 40.9719 423.233 41.9313 422.466 42.8632C421.698 43.7952 421.15 44.5901 420.821 45.248C419.56 47.6053 418.957 50.1545 419.012 52.8956C419.067 55.5819 419.725 57.857 420.986 59.7209C422.137 61.2011 423.48 62.1879 425.015 62.6813C426.331 63.0102 427.701 63.065 429.127 62.8458C429.291 62.8458 429.593 62.7909 430.031 62.6813C432.279 62.1331 434.253 60.9544 435.952 59.1453C437.706 57.2814 439.241 55.1707 440.557 52.8134C441.928 50.4012 443.079 47.9342 444.011 45.4124C444.998 42.8358 445.82 40.5881 446.478 38.6694C446.752 37.9567 447.053 37.244 447.382 36.5313C447.711 35.8186 448.068 35.106 448.451 34.3933C449.219 33.0776 450.151 31.8167 451.247 30.6106C452.399 29.4045 453.659 28.3629 455.03 27.4857C456.401 26.5538 457.799 25.8411 459.224 25.3477C460.704 24.7995 462.157 24.5254 463.582 24.5254C465.611 24.5254 467.255 24.9913 468.516 25.9233C469.832 26.8005 470.846 27.9517 471.559 29.3771C472.326 30.7476 472.847 32.2826 473.121 33.9821C473.45 35.6816 473.615 37.3537 473.615 38.9983C473.889 38.2856 474.218 37.5181 474.601 36.6958C474.985 35.8186 475.341 35.0511 475.67 34.3933C476.438 33.0227 477.397 31.7618 478.549 30.6106C479.755 29.4045 481.043 28.3629 482.413 27.4857C483.839 26.5538 485.292 25.8411 486.772 25.3477C488.307 24.7995 489.814 24.5254 491.295 24.5254C493.268 24.5254 495.105 25.0736 496.804 26.17C498.504 27.2665 499.847 29.0756 500.834 31.5974C501.163 32.4197 501.382 33.571 501.491 35.0511C501.656 36.4765 501.738 38.176 501.738 40.1496V60.1321C501.738 63.1473 502.012 65.3402 502.56 66.7107C502.999 67.6427 503.547 68.3279 504.205 68.7665H494.666C495.543 68.0538 496.229 66.9848 496.722 65.5594C496.777 65.2305 496.832 64.7097 496.886 63.997C496.941 63.2843 496.969 61.996 496.969 60.1321V40.1496C496.969 35.9831 496.42 32.9953 495.324 31.1862C494.392 29.6512 493.296 28.5548 492.035 27.8969C490.829 27.239 489.568 26.9101 488.252 26.9101C487.101 26.9101 485.922 27.1294 484.716 27.568C483.565 27.9517 482.441 28.5274 481.344 29.2949C480.303 30.0075 479.316 30.8299 478.384 31.7618C477.507 32.6938 476.767 33.708 476.164 34.8044C475.725 35.6816 475.259 36.6958 474.766 37.847C474.327 38.9983 473.971 40.0673 473.697 41.0541V60.1321C473.697 63.3666 473.971 65.6143 474.519 66.8752C474.629 67.2589 474.821 67.6153 475.095 67.9442C475.369 68.2183 475.643 68.4924 475.917 68.7665H466.707C467.639 67.8345 468.297 66.6833 468.681 65.3127C468.735 65.0386 468.763 64.5726 468.763 63.9148C468.818 63.2569 468.845 61.996 468.845 60.1321V41.1364C468.845 39.7658 468.735 38.2582 468.516 36.6136C468.352 34.9689 467.968 33.4613 467.365 32.0908C466.817 30.6654 465.994 29.4867 464.898 28.5548C463.802 27.568 462.349 27.0746 460.54 27.0746C459.005 27.0746 457.497 27.4309 456.017 28.1436C454.591 28.8563 453.276 29.7883 452.07 30.9395C450.864 32.0359 449.822 33.2968 448.945 34.7222C448.122 36.1476 447.519 37.5729 447.136 38.9983C446.587 40.5881 446.204 42.315 445.984 44.179C445.82 46.0429 445.738 47.9342 445.738 49.853C445.738 51.7169 445.793 53.5535 445.902 55.3626C446.012 57.1169 446.067 58.7067 446.067 60.1321C446.067 62.3798 446.149 63.9422 446.313 64.8193C446.478 65.6965 446.642 66.3269 446.807 66.7107C447.026 67.0944 447.245 67.4782 447.465 67.862C447.739 68.1909 448.04 68.4924 448.369 68.7665H438.995C439.324 68.4924 439.57 68.2183 439.735 67.9442C440.776 66.5188 441.297 63.9148 441.297 60.1321V58.6519C441.297 56.788 440.968 55.856 440.31 55.856C439.817 55.856 439.077 56.459 438.09 57.6651C436.829 59.1453 435.513 60.3788 434.143 61.3656C432.827 62.3524 431.484 62.9828 430.114 63.2569C430.223 63.4214 430.278 63.5859 430.278 63.7503C430.278 63.86 430.305 63.997 430.36 64.1615C430.634 64.8742 430.991 65.4772 431.429 65.9706C432.252 66.6285 433.129 66.9574 434.061 66.9574H434.554C433.622 67.7797 432.581 68.465 431.429 69.0132C430.278 69.5614 429.072 69.8355 427.811 69.8355C426.934 69.8355 426.139 69.6985 425.426 69.4244C424.714 69.0954 424.001 68.7391 423.288 68.3553C422.247 67.7523 421.315 67.3411 420.492 67.1219C419.725 66.9026 419.012 66.7929 418.354 66.7929C417.532 66.7929 416.764 66.9574 416.052 67.2863C415.394 67.5604 414.681 67.8894 413.914 68.2731C413.201 68.6569 412.406 69.0132 411.529 69.3421C410.707 69.6162 409.665 69.7533 408.404 69.7533C405.389 69.7533 403.086 68.7665 401.497 66.7929C399.962 64.8193 399.194 62.4072 399.194 59.5565ZM406.759 64.4904C407.527 65.3676 408.404 66.0802 409.391 66.6285C410.433 67.1767 411.502 67.4508 412.598 67.4508C413.42 67.4508 414.243 67.2863 415.065 66.9574C416.326 66.4092 417.505 66.1351 418.601 66.1351C419.588 66.1351 420.465 66.2995 421.232 66.6285C422 66.9574 422.767 67.3411 423.535 67.7797C424.467 68.3279 425.481 68.7665 426.578 69.0954C426.468 68.9858 426.386 68.9036 426.331 68.8487C426.276 68.7939 426.221 68.7117 426.166 68.602C425.892 68.3279 425.646 67.862 425.426 67.2041C425.207 66.5462 425.07 65.532 425.015 64.1615V63.2569C423.919 62.9828 422.987 62.5442 422.219 61.9412C421.507 61.3382 420.931 60.7351 420.492 60.1321C419.834 59.1453 419.314 58.0489 418.93 56.8428C418.601 55.5819 418.409 54.2662 418.354 52.8956C418.354 51.5251 418.491 50.1545 418.765 48.784C419.094 47.4134 419.588 46.1251 420.246 44.9191C420.52 44.316 420.958 43.6582 421.561 42.9455C422.164 42.178 422.85 41.383 423.617 40.5607C423.233 40.8348 422.85 41.0815 422.466 41.3008C422.137 41.5201 421.781 41.7394 421.397 41.9587C420.684 42.3424 419.972 42.6988 419.259 43.0277C418.546 43.3018 417.806 43.6307 417.039 44.0145C415.01 44.8916 412.927 46.0155 410.789 47.386C408.706 48.7566 407.006 50.319 405.69 52.0733C404.43 53.8276 403.772 55.7738 403.717 57.9118C403.662 59.995 404.676 62.1879 406.759 64.4904ZM437.597 27.9791L445.984 24.6076H446.067V37.3537C445.354 39.4369 444.586 41.6572 443.764 44.0145C442.997 46.317 442.174 48.2632 441.297 49.853V42.8632C441.297 40.9445 441.27 39.3546 441.215 38.0937C441.215 36.8328 441.188 35.8186 441.133 35.0511C441.133 34.2288 441.105 33.6258 441.05 33.242C440.996 32.8034 440.941 32.4745 440.886 32.2552C440.447 30.6654 439.844 29.5141 439.077 28.8015C438.693 28.4177 438.2 28.1436 437.597 27.9791Z" fill="white"/>
</svg>
