<svg width="365" height="69" viewBox="0 0 365 69" fill="none" xmlns="http://www.w3.org/2000/svg">
<path d="M0.100339 34.2383C0.100339 29.4759 0.784585 25.042 2.15308 20.9365C3.57631 16.7763 5.60168 13.1909 8.22919 10.1802C10.9114 7.11474 14.1958 4.7062 18.0823 2.95452C22.0236 1.20285 26.5396 0.327017 31.6304 0.327017H33.5189C36.1464 0.327017 38.3634 0.573346 40.1698 1.066C42.031 1.55866 43.5911 2.10606 44.8501 2.70819C46.1638 3.25559 47.2586 3.77562 48.1344 4.26828C49.065 4.76093 49.9682 5.00726 50.8441 5.00726C51.8294 5.00726 52.6778 4.7883 53.3895 4.35039C54.1558 3.85773 54.8127 3.22822 55.3601 2.46187L56.2633 14.8604C55.2232 12.8898 53.9369 11.0834 52.4041 9.44118C50.9262 7.74425 49.284 6.29365 47.4776 5.08938C45.7259 3.83036 43.8374 2.87242 41.812 2.21554C39.7866 1.50392 37.6792 1.14811 35.4896 1.14811C30.5083 1.14811 26.2659 2.05132 22.7626 3.85773C19.2592 5.6094 16.4128 8.01795 14.2232 11.0834C12.0336 14.0941 10.4461 17.5974 9.46083 21.5934C8.47552 25.5894 7.98286 29.8044 7.98286 34.2383C7.98286 38.6722 8.47552 42.9145 9.46083 46.9653C10.4461 50.9613 12.0336 54.492 14.2232 57.5574C16.4128 60.5681 19.2592 62.9766 22.7626 64.783C26.2659 66.5895 30.5083 67.4927 35.4896 67.4927C40.1424 67.4927 44.2479 66.3158 47.806 63.9619C51.3641 61.5534 54.1832 58.1322 56.2633 53.6982L55.3601 66.0968C54.2106 64.4546 52.7052 63.6335 50.8441 63.6335C49.9682 63.6335 49.1471 63.8798 48.3808 64.3725C47.6692 64.8652 46.7112 65.4125 45.5069 66.0147C44.3574 66.5621 42.8521 67.0821 40.9909 67.5748C39.1298 68.0674 36.6391 68.3411 33.5189 68.3959H31.6304C26.5396 68.3959 22.0236 67.52 18.0823 65.7684C14.1958 64.0167 10.9114 61.6081 8.22919 58.5427C5.60168 55.4773 3.57631 51.8645 2.15308 47.7042C0.784585 43.544 0.100339 39.0554 0.100339 34.2383ZM59.3591 45.0767C59.3591 42.1208 59.8517 39.247 60.8371 36.4552C61.8771 33.6088 63.3003 31.0907 65.1068 28.9012C66.9679 26.7116 69.1849 24.9599 71.7576 23.6461C74.3304 22.2776 77.1769 21.5934 80.297 21.5934C83.1982 21.5934 85.8805 22.2229 88.3438 23.4819C90.8071 24.6862 92.9419 26.3284 94.7483 28.4085C96.5547 30.4339 97.9506 32.7877 98.9359 35.4699C99.976 38.0974 100.496 40.8618 100.496 43.763C100.496 46.7737 100.003 49.7296 99.018 52.6308C98.0327 55.4773 96.6095 58.0227 94.7483 60.267C92.9419 62.5113 90.7249 64.3178 88.0974 65.6862C85.5247 67 82.6508 67.6569 79.4759 67.6569C76.5747 67.6569 73.8925 67.0547 71.4292 65.8505C68.9659 64.5915 66.8311 62.9219 65.0246 60.8418C63.273 58.7069 61.8771 56.2984 60.8371 53.6161C59.8517 50.8792 59.3591 48.0327 59.3591 45.0767ZM80.5434 66.8358C81.7476 66.8358 83.1709 66.6168 84.8131 66.1789C87.1121 65.5768 88.9185 64.6736 90.2323 63.4693C91.546 62.265 92.5314 60.8692 93.1882 59.2817C93.8451 57.6395 94.2557 55.8331 94.4199 53.8625C94.5841 51.8918 94.6662 49.8391 94.6662 47.7042C94.6662 45.1862 94.4199 42.4492 93.9272 39.4933C93.4893 36.5373 92.6956 33.8004 91.546 31.2823C90.3965 28.7096 88.8638 26.5747 86.9479 24.8778C85.032 23.1809 82.5961 22.3324 79.6401 22.3324C79.2022 22.3324 78.7096 22.3598 78.1622 22.4145C77.6695 22.4692 77.1495 22.5513 76.6021 22.6608C74.1388 23.1535 72.1408 23.9746 70.6081 25.1241C69.1301 26.2189 67.9806 27.5874 67.1595 29.2296C66.3384 30.817 65.791 32.5961 65.5173 34.5667C65.2436 36.5373 65.1068 38.6175 65.1068 40.807C65.1068 43.3251 65.3531 46.0894 65.8457 49.1001C66.3931 52.1108 67.269 54.9299 68.4732 57.5574C69.6775 60.1849 71.265 62.4019 73.2356 64.2083C75.2062 65.9599 77.6421 66.8358 80.5434 66.8358ZM111.504 21.9218H111.586V37.3584C111.86 36.4279 112.188 35.4973 112.571 34.5667C112.954 33.5814 113.42 32.6235 113.967 31.6929C114.733 30.3791 115.664 29.1201 116.759 27.9158C117.908 26.7116 119.167 25.6715 120.536 24.7957C121.904 23.8651 123.3 23.1535 124.723 22.6608C126.201 22.1134 127.652 21.8397 129.075 21.8397C130.991 21.8397 132.743 22.3871 134.33 23.4819C135.918 24.5767 137.177 26.3831 138.107 28.9012C138.436 29.777 138.682 30.9539 138.846 32.4319C139.011 33.9098 139.093 35.6068 139.093 37.5227V57.3932C139.093 60.6228 139.394 62.8398 139.996 64.0441C140.215 64.7557 140.68 65.4125 141.392 66.0147H132.113C133.044 65.1936 133.673 64.0441 134.002 62.5661C134.111 62.2924 134.193 61.8271 134.248 61.1702C134.303 60.5133 134.33 59.2543 134.33 57.3932V38.3438C134.33 36.9753 134.221 35.4699 134.002 33.8277C133.838 32.1855 133.454 30.6802 132.852 29.3117C132.305 27.8885 131.484 26.7116 130.389 25.781C129.294 24.8504 127.844 24.3851 126.037 24.3851C123.848 24.3851 121.685 25.1241 119.551 26.6021C117.416 28.0801 115.719 29.8865 114.46 32.0213C113.693 33.2803 113.091 34.6215 112.653 36.0447C112.215 37.4132 111.86 38.7269 111.586 39.9859V57.3932C111.586 59.6375 111.668 61.1976 111.832 62.0734C111.996 62.9493 112.161 63.5788 112.325 63.9619C112.763 64.8378 113.255 65.522 113.803 66.0147H104.524C105.619 64.9199 106.249 63.5788 106.413 61.9913C106.632 60.4039 106.741 58.8712 106.741 57.3932V40.1502C106.741 38.2343 106.714 36.6468 106.659 35.3878C106.659 34.1288 106.632 33.1161 106.577 32.3498C106.577 31.5834 106.55 31.0086 106.495 30.6255C106.495 30.1875 106.468 29.8591 106.413 29.6401C106.03 27.9979 105.428 26.821 104.607 26.1094C104.223 25.7263 103.731 25.4526 103.129 25.2883L111.504 21.9218ZM140.664 23.2356C141.102 22.9072 141.595 22.5513 142.142 22.1682C142.635 21.785 143.1 21.3471 143.538 20.8544C145.618 19.048 147.452 16.831 149.039 14.2035C149.313 13.8751 149.559 13.4645 149.778 12.9719C149.997 12.4245 150.244 11.8497 150.517 11.2476V22.4145H154.951C155.116 22.4145 155.198 22.5513 155.198 22.825C155.198 22.9893 155.116 23.0714 154.951 23.0714H150.517V55.012C150.517 56.0521 150.6 57.1468 150.764 58.2964C150.928 59.3912 151.256 60.4039 151.749 61.3344C152.242 62.265 152.899 63.0314 153.72 63.6335C154.541 64.2356 155.608 64.5367 156.922 64.5367C157.36 64.5367 157.716 64.5093 157.989 64.4546C158.318 64.3999 158.701 64.2904 159.139 64.1262C158.865 64.3999 158.674 64.5641 158.564 64.6188C156.758 66.0421 154.897 66.7537 152.981 66.7537C151.448 66.7537 150.189 66.4526 149.204 65.8505C148.273 65.1936 147.534 64.3725 146.987 63.3872C146.494 62.4019 146.166 61.2797 146.001 60.0207C145.837 58.7617 145.755 57.4753 145.755 56.1615V23.2356H140.664ZM160.631 56.8184C160.631 54.7383 161.233 52.8772 162.437 51.235C163.696 49.538 165.202 48.0327 166.953 46.7189C168.76 45.3504 170.676 44.1735 172.701 43.1882C174.726 42.2029 176.533 41.3544 178.12 40.6428C179.325 40.1502 180.447 39.6575 181.487 39.1649C182.527 38.6722 183.485 38.1248 184.361 37.5227C184.963 37.0847 185.455 36.4279 185.839 35.552C186.277 34.6762 186.468 33.8277 186.413 33.0066C186.359 31.5287 186.167 30.1328 185.839 28.819C185.565 27.5053 185.1 26.3558 184.443 25.3704C183.786 24.3851 182.883 23.6188 181.733 23.0714C180.584 22.4692 179.133 22.1682 177.381 22.1682C176.287 22.1682 175.137 22.2776 173.933 22.4966C172.783 22.7156 171.716 23.0987 170.73 23.6461C169.745 24.1388 168.924 24.823 168.267 25.6989C167.61 26.52 167.282 27.5874 167.282 28.9012L167.364 31.8571C167.364 32.6782 167.172 33.3898 166.789 33.9919C166.406 34.5393 165.749 34.813 164.819 34.813C163.943 34.813 163.313 34.512 162.93 33.9098C162.602 33.253 162.437 32.5413 162.437 31.775C162.437 30.1328 162.875 28.6822 163.751 27.4232C164.682 26.1642 165.859 25.0967 167.282 24.2209C168.76 23.3451 170.375 22.6882 172.126 22.2503C173.933 21.7576 175.684 21.5113 177.381 21.5113C178.695 21.5113 180.009 21.6208 181.323 21.8397C182.691 22.0039 183.95 22.3324 185.1 22.825C186.249 23.263 187.289 23.8925 188.22 24.7136C189.15 25.4799 189.889 26.4926 190.437 27.7516C190.546 28.0801 190.71 28.8464 190.929 30.0507C191.148 31.2002 191.258 33.1709 191.258 35.9626V51.6455C191.258 53.1782 191.258 54.4646 191.258 55.5047C191.258 56.49 191.258 57.3111 191.258 57.9679C191.313 58.5701 191.34 59.0627 191.34 59.4459C191.395 59.7744 191.449 60.0207 191.504 60.1849C191.723 61.2797 192.106 62.2103 192.654 62.9766C193.256 63.743 194.186 64.1262 195.445 64.1262H195.938C195.008 65.002 193.967 65.7136 192.818 66.261C191.723 66.8084 190.519 67.0821 189.205 67.0821C188.329 67.0821 187.536 66.9179 186.824 66.5895C186.112 66.261 185.401 65.9052 184.689 65.522C183.649 64.9746 182.718 64.5915 181.897 64.3725C181.131 64.1535 180.447 64.0441 179.845 64.0441C178.969 64.0441 178.175 64.2083 177.463 64.5367C176.807 64.8104 176.122 65.1388 175.411 65.522C174.699 65.8505 173.905 66.1789 173.03 66.5073C172.154 66.781 171.086 66.9179 169.827 66.9179C166.817 66.9179 164.517 65.9599 162.93 64.0441C161.397 62.1282 160.631 59.7196 160.631 56.8184ZM168.185 61.745C169.006 62.6208 169.909 63.3324 170.895 63.8798C171.88 64.3725 172.92 64.6188 174.015 64.6188C174.836 64.6188 175.657 64.4546 176.478 64.1262C177.135 63.8525 177.737 63.6609 178.285 63.5514C178.887 63.4419 179.434 63.3872 179.927 63.3872C180.912 63.3872 181.815 63.5514 182.636 63.8798C183.457 64.2083 184.251 64.5915 185.018 65.0294C185.455 65.3031 185.921 65.5494 186.413 65.7684C186.961 65.9873 187.481 66.1515 187.973 66.261C187.864 66.2063 187.782 66.1515 187.727 66.0968C187.727 66.0421 187.672 65.9599 187.563 65.8505C187.289 65.5768 187.043 65.0841 186.824 64.3725C186.605 63.6061 186.468 62.5113 186.413 61.0881V36.7016C185.428 37.6869 184.251 38.5353 182.883 39.247C181.514 39.9038 180.036 40.5881 178.449 41.2997C176.423 42.1208 174.343 43.243 172.208 44.6662C170.128 46.0347 168.431 47.5948 167.118 49.3464C165.859 51.0981 165.202 53.0414 165.147 55.1762C165.092 57.2563 166.105 59.4459 168.185 61.745ZM197.52 44.6662C197.52 42.0387 197.931 39.4112 198.752 36.7837C199.627 34.1562 200.832 31.775 202.364 29.6401C203.897 27.5053 205.758 25.7262 207.948 24.303C210.192 22.8798 212.656 22.0587 215.338 21.8397C217.363 21.566 219.553 21.7029 221.907 22.2503C224.315 22.7977 226.34 23.7282 227.983 25.042C230.446 27.0674 231.678 29.1201 231.678 31.2002C231.678 32.1308 231.431 32.7877 230.939 33.1709C230.446 33.554 229.734 33.7456 228.804 33.7456C227.818 33.7456 227.107 33.6088 226.669 33.3351C226.231 33.0614 225.93 32.7877 225.766 32.514C225.656 32.4045 225.519 32.1582 225.355 31.775C225.191 31.3371 225.027 30.516 224.862 29.3117C224.589 26.301 223.576 24.3304 221.824 23.3998C220.127 22.4692 217.883 22.1955 215.091 22.5787C212.628 22.9072 210.575 23.5914 208.933 24.6315C207.291 25.6715 205.977 26.9853 204.992 28.5727C204.007 30.1054 203.295 31.8845 202.857 33.9098C202.419 35.8805 202.2 38.0153 202.2 40.3144C202.2 46.2263 203.623 51.4539 206.47 55.9973C208.003 58.3511 209.919 60.1575 212.218 61.4165C214.571 62.6756 216.98 63.3051 219.443 63.3051C221.961 63.3051 224.288 62.5935 226.423 61.1702C228.557 59.6922 230.09 57.3932 231.021 54.273C231.13 54.1635 231.294 54.1088 231.513 54.1088C231.732 54.2183 231.787 54.3278 231.678 54.4372C231.075 56.4626 230.2 58.2964 229.05 59.9386C227.955 61.526 226.669 62.8945 225.191 64.0441C223.768 65.1388 222.208 65.9873 220.511 66.5895C218.868 67.1368 217.172 67.4105 215.42 67.4105C213.176 67.4105 210.986 66.9453 208.851 66.0147C206.716 65.0294 204.746 63.524 202.939 61.4987C199.326 57.2837 197.52 51.6729 197.52 44.6662ZM231.434 23.2356C231.872 22.9072 232.364 22.5513 232.912 22.1682C233.404 21.785 233.87 21.3471 234.308 20.8544C236.388 19.048 238.222 16.831 239.809 14.2035C240.083 13.8751 240.329 13.4645 240.548 12.9719C240.767 12.4245 241.013 11.8497 241.287 11.2476V22.4145H245.721C245.885 22.4145 245.967 22.5513 245.967 22.825C245.967 22.9893 245.885 23.0714 245.721 23.0714H241.287V55.012C241.287 56.0521 241.369 57.1468 241.533 58.2964C241.698 59.3912 242.026 60.4039 242.519 61.3344C243.011 62.265 243.668 63.0314 244.489 63.6335C245.31 64.2356 246.378 64.5367 247.692 64.5367C248.129 64.5367 248.485 64.5093 248.759 64.4546C249.087 64.3999 249.471 64.2904 249.908 64.1262C249.635 64.3999 249.443 64.5641 249.334 64.6188C247.527 66.0421 245.666 66.7537 243.75 66.7537C242.218 66.7537 240.959 66.4526 239.973 65.8505C239.043 65.1936 238.304 64.3725 237.756 63.3872C237.264 62.4019 236.935 61.2797 236.771 60.0207C236.607 58.7617 236.525 57.4753 236.525 56.1615V23.2356H231.434ZM277.132 1.80499H289.613C288.025 3.17348 287.068 4.73356 286.739 6.48523C286.465 8.23691 286.329 10.1254 286.329 12.1508V42.0387C286.329 45.4325 286.575 48.6896 287.068 51.8097C287.56 54.8752 288.518 57.5848 289.941 59.9386C291.419 62.2376 293.417 64.0988 295.935 65.522C298.508 66.8905 301.847 67.5748 305.953 67.5748C310.77 67.5748 315.067 66.5347 318.844 64.4546C321.307 63.0861 323.223 61.526 324.592 59.7744C325.96 58.0227 326.973 56.1068 327.63 54.0267C328.287 51.9466 328.67 49.7296 328.779 47.3758C328.943 44.9673 329.026 42.504 329.026 39.9859V12.1508C329.026 7.44318 328.396 4.35039 327.137 2.87242C326.918 2.7082 326.726 2.54398 326.562 2.37975C326.398 2.1608 326.179 1.96921 325.905 1.80499H333.542C331.79 3.17348 330.75 4.7883 330.421 6.64946C330.093 8.51061 329.929 10.4812 329.929 12.5613V40.3144C329.929 42.7777 329.847 45.1589 329.682 47.4579C329.518 49.7022 329.135 51.8645 328.533 53.9446C327.931 55.9699 327 57.8858 325.741 59.6922C324.482 61.4439 322.758 63.0861 320.568 64.6188C316.901 67.1916 311.837 68.478 305.378 68.478C302.86 68.478 300.369 68.2864 297.906 67.9032C295.497 67.52 293.226 66.8358 291.091 65.8505C289.011 64.8104 287.177 63.4419 285.59 61.745C284.002 60.0481 282.743 57.8858 281.813 55.2583C280.718 52.4119 280.17 46.9653 280.17 38.9185V12.1508C280.17 9.74225 280.006 7.79899 279.678 6.32102C279.349 4.78831 278.802 3.58403 278.035 2.70819C277.926 2.54398 277.789 2.37976 277.625 2.21554C277.515 2.05132 277.351 1.91447 277.132 1.80499ZM344.952 21.4292C346.101 21.1007 347.278 20.9365 348.482 20.9365C349.632 20.9365 350.809 21.1007 352.013 21.4292C353.217 21.7029 354.394 22.1408 355.544 22.7429C356.31 23.1261 356.994 23.4272 357.596 23.6461C358.199 23.8104 358.691 23.8377 359.074 23.7282C359.677 23.7282 360.224 23.564 360.717 23.2356V29.8044C359.458 27.1221 357.87 25.0967 355.954 23.7282C354.038 22.305 351.493 21.5934 348.318 21.5934C347.388 21.5934 346.32 21.7302 345.116 22.0039C343.528 22.4419 342.187 23.1535 341.092 24.1388C340.052 25.0694 339.313 26.1368 338.876 27.3411C338.438 28.5453 338.328 29.8317 338.547 31.2002C338.821 32.514 339.478 33.8277 340.518 35.1415C341.722 36.6195 344.048 38.2343 347.497 39.9859L354.969 43.5988C361.1 46.5 364.165 50.3318 364.165 55.0941C364.165 56.791 363.755 58.4606 362.934 60.1028C362.167 61.6902 361.155 63.0861 359.896 64.2904C358.637 65.4947 357.186 66.4526 355.544 67.1642C353.902 67.9306 352.232 68.3138 350.535 68.3138C349.276 68.3138 348.072 68.1495 346.922 67.8211C345.773 67.5474 344.678 67.2463 343.638 66.9179C342.598 66.5347 341.612 66.2063 340.682 65.9326C339.806 65.6041 338.958 65.4399 338.137 65.4399C337.425 65.4399 336.823 65.5768 336.33 65.8505V58.2964C336.987 59.6101 337.781 60.8418 338.711 61.9913C339.697 63.1408 340.791 64.1262 341.996 64.9473C343.2 65.7684 344.486 66.4252 345.855 66.9179C347.223 67.4105 348.647 67.6569 350.125 67.6569C351.329 67.6569 352.506 67.4927 353.655 67.1642C355.462 66.6716 356.912 65.8505 358.007 64.7009C359.102 63.4967 359.813 62.1829 360.142 60.7597C360.47 59.2817 360.388 57.7764 359.896 56.2436C359.458 54.7109 358.582 53.3424 357.268 52.1382C356.392 51.2623 355.106 50.3044 353.409 49.2643C351.767 48.2243 349.659 47.0474 347.086 45.7336C344.185 44.3104 342.05 43.1061 340.682 42.1208C339.368 41.0807 338.492 40.2596 338.054 39.6575C336.85 38.1795 336.193 36.4826 336.084 34.5667C336.029 32.6508 336.357 30.817 337.069 29.0654C337.781 27.259 338.821 25.6715 340.189 24.303C341.612 22.8798 343.2 21.9218 344.952 21.4292Z" fill="white"/>
</svg>
