<svg width="234" height="92" viewBox="0 0 234 92" fill="none" xmlns="http://www.w3.org/2000/svg">
<path d="M0.724301 37.2383C0.724301 32.4759 1.40855 28.042 2.77704 23.9365C4.20027 19.7763 6.22564 16.1909 8.85315 13.1802C11.5354 10.1147 14.8198 7.7062 18.7063 5.95452C22.6476 4.20285 27.1636 3.32702 32.2544 3.32702H34.1429C36.7704 3.32702 38.9874 3.57335 40.7938 4.066C42.6549 4.55866 44.215 5.10606 45.474 5.70819C46.7878 6.25559 47.8826 6.77562 48.7584 7.26828C49.689 7.76093 50.5922 8.00726 51.468 8.00726C52.4533 8.00726 53.3018 7.7883 54.0134 7.35039C54.7798 6.85773 55.4367 6.22822 55.984 5.46187L56.8873 17.8604C55.8472 15.8898 54.5608 14.0834 53.0281 12.4412C51.5501 10.7442 49.9079 9.29365 48.1015 8.08938C46.3499 6.83036 44.4613 5.87242 42.436 5.21554C40.4106 4.50392 38.3031 4.14811 36.1135 4.14811C31.1322 4.14811 26.8899 5.05132 23.3865 6.85773C19.8832 8.6094 17.0367 11.0179 14.8471 14.0834C12.6576 17.0941 11.0701 20.5974 10.0848 24.5934C9.09948 28.5894 8.60682 32.8044 8.60682 37.2383C8.60682 41.6722 9.09948 45.9145 10.0848 49.9653C11.0701 53.9613 12.6576 57.492 14.8471 60.5574C17.0367 63.5681 19.8832 65.9766 23.3865 67.783C26.8899 69.5895 31.1322 70.4927 36.1135 70.4927C39.3979 70.4927 42.4633 69.8905 45.3098 68.6862C48.1563 67.482 50.5375 65.7303 52.4533 63.4312V46.1061C52.4533 43.5881 52.3439 41.809 52.1249 40.769C51.9607 39.7289 51.7417 38.9899 51.468 38.552C50.9754 37.512 50.2638 36.6635 49.3332 36.0066H61.4854C61.1022 36.2803 60.8011 36.5814 60.5822 36.9098C60.3632 37.1835 60.1443 37.4846 59.9253 37.813C59.4874 38.6341 59.159 39.7016 58.94 41.0153C58.7758 42.3291 58.6937 44.026 58.6937 46.1061V59.4079C58.6937 61.8712 58.7758 63.6502 58.94 64.745C59.159 65.785 59.3232 66.524 59.4327 66.9619C59.9253 68.1115 60.7738 69.0421 61.9781 69.7537H49.4974C50.428 69.0968 51.0848 68.3852 51.468 67.6188C51.8512 66.7977 52.1249 65.8398 52.2891 64.745C51.7417 65.1282 51.0575 65.7029 50.2364 66.4693C49.4153 67.1809 48.3205 67.8925 46.952 68.6041C45.5835 69.3158 43.8592 69.9453 41.7791 70.4927C39.699 71.0401 37.1536 71.3411 34.1429 71.3959H32.2544C27.1636 71.3959 22.6476 70.52 18.7063 68.7684C14.8198 67.0167 11.5354 64.6081 8.85315 61.5427C6.22564 58.4773 4.20027 54.8645 2.77704 50.7042C1.40855 46.544 0.724301 42.0554 0.724301 37.2383ZM64.9526 59.8184C64.9526 57.7383 65.5547 55.8772 66.759 54.235C68.018 52.538 69.5234 51.0327 71.275 49.7189C73.0814 48.3504 74.9973 47.1735 77.0227 46.1882C79.0481 45.2029 80.8545 44.3544 82.4419 43.6428C83.6462 43.1502 84.7684 42.6575 85.8084 42.1649C86.8485 41.6722 87.8064 41.1248 88.6823 40.5227C89.2844 40.0847 89.7771 39.4279 90.1602 38.552C90.5982 37.6762 90.7897 36.8277 90.735 36.0066C90.6803 34.5287 90.4887 33.1328 90.1602 31.819C89.8865 30.5053 89.4213 29.3558 88.7644 28.3704C88.1075 27.3851 87.2043 26.6188 86.0548 26.0714C84.9052 25.4692 83.4546 25.1682 81.703 25.1682C80.6082 25.1682 79.4586 25.2776 78.2543 25.4966C77.1048 25.7156 76.0374 26.0987 75.0521 26.6461C74.0668 27.1388 73.2457 27.823 72.5888 28.6989C71.9319 29.52 71.6035 30.5874 71.6035 31.9012L71.6856 34.8571C71.6856 35.6782 71.494 36.3898 71.1108 36.9919C70.7276 37.5393 70.0708 37.813 69.1402 37.813C68.2643 37.813 67.6348 37.512 67.2517 36.9098C66.9232 36.253 66.759 35.5413 66.759 34.775C66.759 33.1328 67.1969 31.6822 68.0728 30.4232C69.0033 29.1642 70.1802 28.0967 71.6035 27.2209C73.0814 26.3451 74.6963 25.6882 76.4479 25.2503C78.2543 24.7576 80.006 24.5113 81.703 24.5113C83.0167 24.5113 84.3305 24.6208 85.6442 24.8397C87.0127 25.0039 88.2717 25.3324 89.4213 25.825C90.5708 26.263 91.6108 26.8925 92.5414 27.7136C93.472 28.4799 94.211 29.4926 94.7584 30.7516C94.8679 31.0801 95.0321 31.8464 95.251 33.0507C95.47 34.2002 95.5795 36.1709 95.5795 38.9626V54.6455C95.5795 56.1782 95.5795 57.4646 95.5795 58.5047C95.5795 59.49 95.5795 60.3111 95.5795 60.9679C95.6342 61.5701 95.6616 62.0627 95.6616 62.4459C95.7163 62.7744 95.7711 63.0207 95.8258 63.1849C96.0448 64.2797 96.4279 65.2103 96.9753 65.9766C97.5775 66.743 98.508 67.1262 99.7671 67.1262H100.26C99.3291 68.002 98.2891 68.7136 97.1396 69.261C96.0448 69.8084 94.8405 70.0821 93.5267 70.0821C92.6509 70.0821 91.8572 69.9179 91.1456 69.5895C90.4339 69.261 89.7223 68.9052 89.0107 68.522C87.9706 67.9746 87.0401 67.5915 86.219 67.3725C85.4526 67.1535 84.7684 67.0441 84.1662 67.0441C83.2904 67.0441 82.4967 67.2083 81.7851 67.5367C81.1282 67.8104 80.4439 68.1388 79.7323 68.522C79.0207 68.8505 78.227 69.1789 77.3511 69.5073C76.4753 69.781 75.4079 69.9179 74.1489 69.9179C71.1382 69.9179 68.8391 68.9599 67.2517 67.0441C65.719 65.1282 64.9526 62.7196 64.9526 59.8184ZM72.5067 64.745C73.3278 65.6208 74.231 66.3324 75.2163 66.8798C76.2016 67.3725 77.2417 67.6188 78.3365 67.6188C79.1576 67.6188 79.9787 67.4546 80.7997 67.1262C81.4566 66.8525 82.0588 66.6609 82.6062 66.5514C83.2083 66.4419 83.7557 66.3872 84.2483 66.3872C85.2337 66.3872 86.1369 66.5514 86.958 66.8798C87.7791 67.2083 88.5728 67.5915 89.3391 68.0294C89.7771 68.3031 90.2423 68.5494 90.735 68.7684C91.2824 68.9873 91.8024 69.1515 92.2951 69.261C92.1856 69.2063 92.1035 69.1515 92.0488 69.0968C92.0488 69.0421 91.994 68.9599 91.8845 68.8505C91.6108 68.5768 91.3645 68.0841 91.1456 67.3725C90.9266 66.6061 90.7897 65.5113 90.735 64.0881V39.7016C89.7497 40.6869 88.5728 41.5353 87.2043 42.247C85.8358 42.9038 84.3578 43.5881 82.7704 44.2997C80.745 45.1208 78.6649 46.243 76.53 47.6662C74.4499 49.0347 72.753 50.5948 71.4393 52.3464C70.1802 54.0981 69.5234 56.0414 69.4686 58.1762C69.4139 60.2563 70.4266 62.4459 72.5067 64.745ZM109.865 0.617402H109.947V60.3932C109.947 61.0501 109.947 61.789 109.947 62.6101C110.002 63.4312 110.084 64.225 110.194 64.9913C110.358 65.7577 110.604 66.4967 110.933 67.2083C111.261 67.9199 111.699 68.522 112.246 69.0147H102.886C103.214 68.741 103.488 68.4399 103.707 68.1115C103.926 67.7283 104.145 67.3178 104.364 66.8798C104.638 66.223 104.829 65.3745 104.939 64.3344C105.048 63.2944 105.103 61.9806 105.103 60.3932V18.1889C105.103 16.3824 105.076 14.9045 105.021 13.7549C105.021 12.5507 104.993 11.5927 104.939 10.8811C104.939 10.1147 104.911 9.53998 104.857 9.1568C104.802 8.77362 104.747 8.47255 104.692 8.25359C104.473 6.6114 103.899 5.46186 102.968 4.80499C102.585 4.42181 102.147 4.14811 101.654 3.9839L109.865 0.617402ZM123.176 0.617402H123.258V60.3932C123.258 61.0501 123.258 61.789 123.258 62.6101C123.313 63.4312 123.395 64.225 123.504 64.9913C123.669 65.7577 123.915 66.4967 124.243 67.2083C124.572 67.9199 125.01 68.522 125.557 69.0147H116.197C116.525 68.741 116.799 68.4399 117.018 68.1115C117.237 67.7283 117.456 67.3178 117.675 66.8798C117.948 66.223 118.14 65.3745 118.249 64.3344C118.359 63.2944 118.414 61.9806 118.414 60.3932V18.1889C118.414 16.3824 118.386 14.9045 118.332 13.7549C118.332 12.5507 118.304 11.5927 118.249 10.8811C118.249 10.1147 118.222 9.53998 118.167 9.1568C118.113 8.77362 118.058 8.47255 118.003 8.25359C117.784 6.6114 117.209 5.46186 116.279 4.80499C115.896 4.42181 115.458 4.14811 114.965 3.9839L123.176 0.617402ZM148.721 24.4292C151.02 24.4292 153.155 24.8124 155.126 25.5787C157.096 26.2903 158.793 27.3304 160.216 28.6989C161.64 30.0126 162.789 31.6275 163.665 33.5433C164.541 35.4592 165.033 37.5667 165.143 39.8658C161.968 39.8658 158.766 39.8658 155.536 39.8658C152.306 39.8658 149.132 40.1669 146.011 40.769C143.603 41.2069 141.632 41.8364 140.1 42.6575C138.567 43.4239 137.39 44.4092 136.569 45.6135C135.912 46.5988 135.501 47.6936 135.337 48.8978C135.173 50.1021 135.2 51.3064 135.419 52.5107C135.693 53.7149 136.104 54.8918 136.651 56.0414C137.253 57.1362 137.91 58.1215 138.622 58.9973C142.399 63.3765 146.805 65.5661 151.841 65.5661C154.195 65.5661 156.275 64.9639 158.082 63.7597C159.943 62.5007 161.585 60.9132 163.008 58.9973C164.486 57.0267 165.8 54.8097 166.949 52.3464C168.099 49.8832 169.194 47.4472 170.234 45.0387C171.274 42.5754 172.286 40.249 173.272 38.0594C174.257 35.8698 175.325 34.0634 176.474 32.6401C176.912 32.1475 177.323 31.6548 177.706 31.1622C178.089 30.6148 178.499 30.1221 178.937 29.6842C179.43 29.2463 180.06 28.7536 180.826 28.2062C181.592 27.6041 182.441 27.0567 183.371 26.564C184.302 26.0714 185.26 25.6608 186.245 25.3324C187.23 24.9492 188.161 24.7576 189.037 24.7576C190.241 24.7576 191.226 25.1134 191.993 25.825C192.704 26.4272 193.115 27.1935 193.224 28.1241C193.334 28.9999 193.06 29.7937 192.403 30.5053C191.856 31.0527 191.281 31.3264 190.679 31.3264C190.186 31.3264 189.666 31.1895 189.119 30.9158C188.626 30.6421 188.134 30.3411 187.641 30.0126C186.327 28.9178 185.013 28.3704 183.7 28.3704C182.824 28.3704 181.866 28.7262 180.826 29.4379C179.786 30.0947 178.801 30.9158 177.87 31.9012C176.994 32.8865 176.255 33.9539 175.653 35.1034C175.106 36.1982 174.832 37.2109 174.832 38.1415V59.7363C174.832 61.488 174.996 63.1575 175.325 64.745C175.708 66.3324 176.638 67.6736 178.116 68.7684H167.77C168.701 67.8925 169.358 66.8251 169.741 65.5661C169.851 65.2924 169.933 64.7997 169.987 64.0881C170.042 63.3765 170.07 62.0627 170.07 60.1468V54.3171C170.07 52.4012 169.823 51.4432 169.331 51.4432C168.893 51.4432 168.318 52.237 167.606 53.8244C166.621 55.7403 165.499 57.6836 164.24 59.6542C162.981 61.5701 161.558 63.3218 159.97 64.9092C158.383 66.4419 156.604 67.7009 154.633 68.6862C152.662 69.6716 150.473 70.1642 148.064 70.1642C142.973 70.1642 138.622 68.1936 135.009 64.2523C131.396 60.3111 129.59 54.8645 129.59 47.9125C129.59 44.9018 129.973 42.0006 130.739 39.2089C131.505 36.3624 132.655 33.8444 134.188 31.6548C135.775 29.4652 137.773 27.7136 140.182 26.3998C142.59 25.0861 145.437 24.4292 148.721 24.4292ZM134.68 52.6749C134.571 52.237 134.516 51.8264 134.516 51.4432C134.571 51.0601 134.598 50.6495 134.598 50.2116C134.598 48.4052 135.009 46.8725 135.83 45.6135C136.651 44.3544 137.718 43.3418 139.032 42.5754C140.401 41.7543 141.906 41.1248 143.548 40.6869C145.245 40.1942 146.969 39.8658 148.721 39.7016C150.473 39.4826 152.17 39.3458 153.812 39.291C155.509 39.2363 156.987 39.2089 158.246 39.2089L158.164 38.6341C157.999 35.295 157.616 32.9959 157.014 31.7369C156.029 29.4379 154.688 27.7683 152.991 26.7282C151.349 25.6882 149.542 25.1682 147.572 25.1682C146.312 25.1682 145.026 25.3598 143.712 25.7429C142.453 26.1261 141.194 26.6735 139.935 27.3851C137.965 28.4252 136.405 29.8758 135.255 31.7369C134.16 33.5981 133.421 35.6782 133.038 37.9773C132.655 40.2216 132.6 42.6301 132.874 45.2029C133.202 47.7209 133.804 50.2116 134.68 52.6749ZM166.375 28.042L174.832 24.5934V33.6255C173.901 34.8845 173.053 36.4172 172.286 38.2236C171.575 39.9753 170.836 41.809 170.07 43.7249V42.1649C170.07 40.3037 170.042 38.771 169.987 37.5667C169.987 36.3624 169.96 35.4045 169.905 34.6929C169.905 33.9265 169.878 33.3518 169.823 32.9686C169.823 32.5854 169.796 32.3117 169.741 32.1475C169.522 31.2716 169.139 30.4505 168.592 29.6842C168.044 28.8631 167.305 28.3157 166.375 28.042ZM192.059 87.6536C192.059 86.5588 192.387 85.7924 193.044 85.3545C193.701 84.9713 194.522 84.7797 195.507 84.7797C196.712 84.7797 197.916 85.0808 199.12 85.6829C200.325 86.2851 201.474 86.5861 202.569 86.5861C203.335 86.5861 204.102 86.3945 204.868 86.0114C205.634 85.6829 206.319 85.245 206.921 84.6976C207.578 84.205 208.152 83.6028 208.645 82.8912C209.138 82.2343 209.493 81.5775 209.712 80.9206L214.557 68.7684L197.724 33.3791C197.505 32.8865 197.204 32.3117 196.821 31.6548C196.438 30.9979 196 30.3411 195.507 29.6842C195.07 29.0273 194.604 28.3978 194.112 27.7957C193.619 27.1935 193.154 26.7282 192.716 26.3998H203.636C202.925 27.0567 202.487 27.7957 202.323 28.6168C202.158 29.4379 202.131 30.2863 202.24 31.1622C202.35 32.038 202.569 32.9138 202.897 33.7897C203.281 34.6108 203.636 35.3771 203.965 36.0887L216.938 62.9386L229.747 30.7516C230.021 30.2042 230.076 29.4926 229.911 28.6168C229.747 27.6862 229.501 27.0019 229.172 26.564C229.063 26.4546 229.008 26.3998 229.008 26.3998H233.853C232.758 27.3304 231.964 28.3157 231.471 29.3558C231.034 30.3411 230.568 31.4632 230.076 32.7222L210.369 81.1669C209.877 82.4259 209.192 83.6849 208.317 84.9439C207.441 86.203 206.428 87.3251 205.279 88.3104C204.184 89.2958 202.925 90.0895 201.501 90.6916C200.133 91.2938 198.655 91.5948 197.068 91.5948C196.52 91.5948 195.945 91.5127 195.343 91.3485C194.796 91.1843 194.276 90.9379 193.783 90.6095C193.291 90.2811 192.88 89.8705 192.552 89.3779C192.223 88.8852 192.059 88.3104 192.059 87.6536Z" fill="white"/>
</svg>
