<svg width="24" height="24" viewBox="0 0 24 24" fill="none" xmlns="http://www.w3.org/2000/svg">
<g clip-path="url(#clip0_163_477)">
<path d="M23.0752 16.7621C23.6547 17.3432 23.9801 18.1304 23.9801 18.9511C23.9801 19.7717 23.6547 20.5589 23.0752 21.1401L22.1632 22.1901C13.9722 30.0281 -5.95582 10.1061 1.76318 1.89006L2.91318 0.89006C3.49482 0.326606 4.27491 0.0147993 5.08468 0.022098C5.89445 0.0293966 6.66879 0.355214 7.24018 0.929061C7.27118 0.95906 9.12318 3.36706 9.12318 3.36706C9.6711 3.9456 9.97597 4.71244 9.97485 5.50926C9.97374 6.30608 9.66672 7.07206 9.11718 7.64906L7.95918 9.10506C8.60017 10.6621 9.54244 12.0771 10.7319 13.269C11.9213 14.4608 13.3345 15.4059 14.8902 16.0501L16.3552 14.8851C16.931 14.3341 17.697 14.026 18.494 14.0249C19.291 14.0238 20.0578 14.3297 20.6352 14.8791C20.6352 14.8791 23.0442 16.7321 23.0752 16.7621ZM21.7002 18.2161C21.7002 18.2161 19.3072 16.3741 19.2762 16.3441C19.0702 16.1398 18.7918 16.0252 18.5017 16.0252C18.2116 16.0252 17.9332 16.1398 17.7272 16.3441C17.7002 16.3701 15.6832 17.9781 15.6832 17.9781C15.5473 18.0863 15.3855 18.1572 15.2138 18.1838C15.0422 18.2105 14.8665 18.1919 14.7042 18.1301C12.6876 17.3798 10.8559 16.2047 9.33327 14.6845C7.81064 13.1643 6.63265 11.3344 5.87918 9.31906C5.81238 9.15452 5.7906 8.97515 5.81609 8.7994C5.84157 8.62365 5.9134 8.45786 6.02418 8.31906C6.02418 8.31906 7.63218 6.30506 7.65918 6.27906C7.86345 6.07305 7.97806 5.79468 7.97806 5.50456C7.97806 5.21444 7.86345 4.93607 7.65918 4.73006C7.62918 4.70006 5.78718 2.30506 5.78718 2.30506C5.57808 2.11757 5.30519 2.01716 5.02443 2.02441C4.74367 2.03166 4.47633 2.14602 4.27718 2.34406L3.12718 3.34406C-2.51482 10.1271 14.7572 26.4411 20.7002 20.8271L21.6122 19.7761C21.8272 19.5787 21.9567 19.3053 21.9731 19.0139C21.9896 18.7226 21.8916 18.4363 21.7002 18.2161Z" fill="#7A7B7C"/>
</g>
<defs>
<clipPath id="clip0_163_477">
<rect width="24" height="24" fill="white"/>
</clipPath>
</defs>
</svg>
