<svg width="24" height="24" viewBox="0 0 24 24" fill="none" xmlns="http://www.w3.org/2000/svg">
<path fill-rule="evenodd" clip-rule="evenodd" d="M22.6755 24.0002C23.407 24.0002 24 23.407 24 22.6756V1.32458C24 0.592867 23.4069 0 22.6755 0H1.32458C0.592867 0 0 0.592957 0 1.32458V22.6755C0 23.407 0.592867 24.0001 1.32458 24.0001H22.6755V24.0002ZM16.5596 24.0002V14.706H19.6793L20.1463 11.0839H16.5595V8.77133C16.5595 7.72264 16.8507 7.00802 18.3546 7.00802L20.2726 7.00712V3.76753C19.9408 3.72347 18.8022 3.62482 17.4777 3.62482C14.7123 3.62482 12.8191 5.31278 12.8191 8.41272V11.0839H9.69143V14.706H12.8191V24.0001H16.5596V24.0002Z" fill="#4E4D4D"/>
</svg>
